<mxfile host="app.diagrams.net" agent="Mozilla/5.0 (Windows NT 10.0; Win64; x64; rv:128.0) Gecko/20100101 Firefox/128.0" version="24.7.14">
  <diagram id="Ht1M8jgEwFfnCIfOTk4-" name="Page-1">
    <mxGraphModel dx="1934" dy="1140" grid="1" gridSize="10" guides="1" tooltips="1" connect="1" arrows="1" fold="1" page="1" pageScale="1" pageWidth="1654" pageHeight="1169" math="0" shadow="0">
      <root>
        <mxCell id="0" />
        <mxCell id="1" parent="0" />
        <mxCell id="db7kd97DLkEgXkuv01ct-26" style="edgeStyle=orthogonalEdgeStyle;rounded=0;orthogonalLoop=1;jettySize=auto;html=1;fontColor=#000000;fontSize=14;" edge="1" parent="1" source="db7kd97DLkEgXkuv01ct-1">
          <mxGeometry relative="1" as="geometry">
            <mxPoint x="239" y="600" as="targetPoint" />
          </mxGeometry>
        </mxCell>
        <mxCell id="db7kd97DLkEgXkuv01ct-1" value="" style="sketch=0;outlineConnect=0;fontColor=#000000;gradientColor=none;fillColor=#232F3D;strokeColor=none;dashed=0;verticalLabelPosition=bottom;verticalAlign=top;align=center;html=1;fontSize=14;fontStyle=0;aspect=fixed;pointerEvents=1;shape=mxgraph.aws4.internet_alt22;" vertex="1" parent="1">
          <mxGeometry x="80" y="561" width="78" height="78" as="geometry" />
        </mxCell>
        <mxCell id="db7kd97DLkEgXkuv01ct-2" value="AWS Cloud" style="points=[[0,0],[0.25,0],[0.5,0],[0.75,0],[1,0],[1,0.25],[1,0.5],[1,0.75],[1,1],[0.75,1],[0.5,1],[0.25,1],[0,1],[0,0.75],[0,0.5],[0,0.25]];outlineConnect=0;gradientColor=none;html=1;whiteSpace=wrap;fontSize=14;fontStyle=0;container=1;pointerEvents=0;collapsible=0;recursiveResize=0;shape=mxgraph.aws4.group;grIcon=mxgraph.aws4.group_aws_cloud_alt;strokeColor=#232F3E;fillColor=none;verticalAlign=top;align=left;spacingLeft=30;fontColor=#000000;dashed=0;" vertex="1" parent="1">
          <mxGeometry x="200" y="200" width="1200" height="920" as="geometry" />
        </mxCell>
        <mxCell id="db7kd97DLkEgXkuv01ct-111" value="&lt;div style=&quot;font-size: 14px;&quot;&gt;API&lt;/div&gt;" style="fillColor=none;strokeColor=#5A6C86;dashed=1;verticalAlign=top;fontStyle=0;fontColor=#000000;whiteSpace=wrap;html=1;align=left;fontSize=14;movable=1;resizable=1;rotatable=1;deletable=1;editable=1;locked=0;connectable=1;" vertex="1" parent="db7kd97DLkEgXkuv01ct-2">
          <mxGeometry x="312.5" y="480" width="255" height="150" as="geometry" />
        </mxCell>
        <mxCell id="db7kd97DLkEgXkuv01ct-110" value="Front end(SSR)" style="fillColor=none;strokeColor=#5A6C86;dashed=1;verticalAlign=top;fontStyle=0;fontColor=#000000;whiteSpace=wrap;html=1;align=left;fontSize=14;" vertex="1" parent="db7kd97DLkEgXkuv01ct-2">
          <mxGeometry x="302.5" y="150" width="275" height="170" as="geometry" />
        </mxCell>
        <mxCell id="db7kd97DLkEgXkuv01ct-38" value="CloudWatch" style="sketch=0;points=[[0,0,0],[0.25,0,0],[0.5,0,0],[0.75,0,0],[1,0,0],[0,1,0],[0.25,1,0],[0.5,1,0],[0.75,1,0],[1,1,0],[0,0.25,0],[0,0.5,0],[0,0.75,0],[1,0.25,0],[1,0.5,0],[1,0.75,0]];points=[[0,0,0],[0.25,0,0],[0.5,0,0],[0.75,0,0],[1,0,0],[0,1,0],[0.25,1,0],[0.5,1,0],[0.75,1,0],[1,1,0],[0,0.25,0],[0,0.5,0],[0,0.75,0],[1,0.25,0],[1,0.5,0],[1,0.75,0]];outlineConnect=0;fontColor=#000000;fillColor=#E7157B;strokeColor=#ffffff;dashed=0;verticalLabelPosition=bottom;verticalAlign=top;align=center;html=1;fontSize=14;fontStyle=0;aspect=fixed;shape=mxgraph.aws4.resourceIcon;resIcon=mxgraph.aws4.cloudwatch_2;" vertex="1" parent="db7kd97DLkEgXkuv01ct-2">
          <mxGeometry x="590" y="360" width="80" height="80" as="geometry" />
        </mxCell>
        <mxCell id="db7kd97DLkEgXkuv01ct-48" value="" style="points=[[0,0],[0.25,0],[0.5,0],[0.75,0],[1,0],[1,0.25],[1,0.5],[1,0.75],[1,1],[0.75,1],[0.5,1],[0.25,1],[0,1],[0,0.75],[0,0.5],[0,0.25]];outlineConnect=0;gradientColor=none;html=1;whiteSpace=wrap;fontSize=14;fontStyle=0;container=1;pointerEvents=0;collapsible=0;recursiveResize=0;shape=mxgraph.aws4.group;grIcon=mxgraph.aws4.group_vpc2;strokeColor=#C925D1;fillColor=none;verticalAlign=top;align=center;spacingLeft=30;fontColor=#000000;dashed=0;perimeterSpacing=0;" vertex="1" parent="db7kd97DLkEgXkuv01ct-2">
          <mxGeometry x="980" y="590" width="190" height="280" as="geometry" />
        </mxCell>
        <mxCell id="db7kd97DLkEgXkuv01ct-47" value="&lt;font style=&quot;font-size: 14px;&quot;&gt;CodePipeline&lt;/font&gt;" style="sketch=0;points=[[0,0,0],[0.25,0,0],[0.5,0,0],[0.75,0,0],[1,0,0],[0,1,0],[0.25,1,0],[0.5,1,0],[0.75,1,0],[1,1,0],[0,0.25,0],[0,0.5,0],[0,0.75,0],[1,0.25,0],[1,0.5,0],[1,0.75,0]];outlineConnect=0;fontColor=#000000;fillColor=#C925D1;strokeColor=#ffffff;dashed=0;verticalLabelPosition=middle;verticalAlign=top;align=left;html=1;fontSize=14;fontStyle=0;aspect=fixed;shape=mxgraph.aws4.resourceIcon;resIcon=mxgraph.aws4.codepipeline;labelPosition=right;" vertex="1" parent="db7kd97DLkEgXkuv01ct-48">
          <mxGeometry width="60" height="60" as="geometry" />
        </mxCell>
        <mxCell id="db7kd97DLkEgXkuv01ct-45" value="CodeBuild" style="sketch=0;points=[[0,0,0],[0.25,0,0],[0.5,0,0],[0.75,0,0],[1,0,0],[0,1,0],[0.25,1,0],[0.5,1,0],[0.75,1,0],[1,1,0],[0,0.25,0],[0,0.5,0],[0,0.75,0],[1,0.25,0],[1,0.5,0],[1,0.75,0]];outlineConnect=0;fontColor=#000000;fillColor=#C925D1;strokeColor=#ffffff;dashed=0;verticalLabelPosition=bottom;verticalAlign=top;align=center;html=1;fontSize=14;fontStyle=0;aspect=fixed;shape=mxgraph.aws4.resourceIcon;resIcon=mxgraph.aws4.codebuild;labelPosition=center;" vertex="1" parent="db7kd97DLkEgXkuv01ct-48">
          <mxGeometry x="60" y="90" width="80" height="80" as="geometry" />
        </mxCell>
        <mxCell id="db7kd97DLkEgXkuv01ct-120" style="edgeStyle=orthogonalEdgeStyle;rounded=0;orthogonalLoop=1;jettySize=auto;html=1;" edge="1" parent="db7kd97DLkEgXkuv01ct-2" source="db7kd97DLkEgXkuv01ct-43" target="db7kd97DLkEgXkuv01ct-119">
          <mxGeometry relative="1" as="geometry" />
        </mxCell>
        <mxCell id="db7kd97DLkEgXkuv01ct-43" value="ECR" style="sketch=0;points=[[0,0,0],[0.25,0,0],[0.5,0,0],[0.75,0,0],[1,0,0],[0,1,0],[0.25,1,0],[0.5,1,0],[0.75,1,0],[1,1,0],[0,0.25,0],[0,0.5,0],[0,0.75,0],[1,0.25,0],[1,0.5,0],[1,0.75,0]];outlineConnect=0;fontColor=#000000;fillColor=#ED7100;strokeColor=#ffffff;dashed=0;verticalLabelPosition=bottom;verticalAlign=top;align=center;html=1;fontSize=14;fontStyle=0;aspect=fixed;shape=mxgraph.aws4.resourceIcon;resIcon=mxgraph.aws4.ecr;labelPosition=center;" vertex="1" parent="db7kd97DLkEgXkuv01ct-2">
          <mxGeometry x="840" y="680" width="80" height="80" as="geometry" />
        </mxCell>
        <mxCell id="db7kd97DLkEgXkuv01ct-57" style="edgeStyle=orthogonalEdgeStyle;rounded=0;orthogonalLoop=1;jettySize=auto;html=1;entryX=1;entryY=0.5;entryDx=0;entryDy=0;entryPerimeter=0;fontColor=#000000;fontSize=14;" edge="1" parent="db7kd97DLkEgXkuv01ct-2" source="db7kd97DLkEgXkuv01ct-45" target="db7kd97DLkEgXkuv01ct-43">
          <mxGeometry relative="1" as="geometry">
            <Array as="points">
              <mxPoint x="1000" y="720" />
              <mxPoint x="1000" y="720" />
            </Array>
          </mxGeometry>
        </mxCell>
        <mxCell id="db7kd97DLkEgXkuv01ct-92" value="&lt;div style=&quot;font-size: 14px;&quot;&gt;S3&lt;/div&gt;" style="sketch=0;points=[[0,0,0],[0.25,0,0],[0.5,0,0],[0.75,0,0],[1,0,0],[0,1,0],[0.25,1,0],[0.5,1,0],[0.75,1,0],[1,1,0],[0,0.25,0],[0,0.5,0],[0,0.75,0],[1,0.25,0],[1,0.5,0],[1,0.75,0]];outlineConnect=0;fontColor=#000000;fillColor=#7AA116;strokeColor=#ffffff;dashed=0;verticalLabelPosition=bottom;verticalAlign=top;align=center;html=1;fontSize=14;fontStyle=0;aspect=fixed;shape=mxgraph.aws4.resourceIcon;resIcon=mxgraph.aws4.s3;" vertex="1" parent="db7kd97DLkEgXkuv01ct-2">
          <mxGeometry x="160" y="80" width="80" height="80" as="geometry" />
        </mxCell>
        <mxCell id="db7kd97DLkEgXkuv01ct-106" style="edgeStyle=orthogonalEdgeStyle;rounded=0;orthogonalLoop=1;jettySize=auto;html=1;fontColor=#000000;fontSize=14;" edge="1" parent="db7kd97DLkEgXkuv01ct-2" source="db7kd97DLkEgXkuv01ct-95" target="db7kd97DLkEgXkuv01ct-96">
          <mxGeometry relative="1" as="geometry" />
        </mxCell>
        <mxCell id="db7kd97DLkEgXkuv01ct-124" style="edgeStyle=orthogonalEdgeStyle;rounded=0;orthogonalLoop=1;jettySize=auto;html=1;" edge="1" parent="db7kd97DLkEgXkuv01ct-2" source="db7kd97DLkEgXkuv01ct-95" target="db7kd97DLkEgXkuv01ct-123">
          <mxGeometry relative="1" as="geometry">
            <Array as="points">
              <mxPoint x="50" y="260" />
              <mxPoint x="50" y="260" />
            </Array>
          </mxGeometry>
        </mxCell>
        <mxCell id="db7kd97DLkEgXkuv01ct-95" value="Route 53" style="sketch=0;points=[[0,0,0],[0.25,0,0],[0.5,0,0],[0.75,0,0],[1,0,0],[0,1,0],[0.25,1,0],[0.5,1,0],[0.75,1,0],[1,1,0],[0,0.25,0],[0,0.5,0],[0,0.75,0],[1,0.25,0],[1,0.5,0],[1,0.75,0]];outlineConnect=0;fontColor=#000000;fillColor=#8C4FFF;strokeColor=#ffffff;dashed=0;verticalLabelPosition=bottom;verticalAlign=top;align=center;html=1;fontSize=14;fontStyle=0;aspect=fixed;shape=mxgraph.aws4.resourceIcon;resIcon=mxgraph.aws4.route_53;direction=east;" vertex="1" parent="db7kd97DLkEgXkuv01ct-2">
          <mxGeometry x="40" y="360" width="80" height="80" as="geometry" />
        </mxCell>
        <mxCell id="db7kd97DLkEgXkuv01ct-103" style="edgeStyle=orthogonalEdgeStyle;rounded=0;orthogonalLoop=1;jettySize=auto;html=1;fontColor=#000000;fontSize=14;" edge="1" parent="db7kd97DLkEgXkuv01ct-2" source="db7kd97DLkEgXkuv01ct-96" target="db7kd97DLkEgXkuv01ct-92">
          <mxGeometry relative="1" as="geometry">
            <Array as="points">
              <mxPoint x="180" y="210" />
              <mxPoint x="180" y="210" />
            </Array>
          </mxGeometry>
        </mxCell>
        <mxCell id="db7kd97DLkEgXkuv01ct-104" style="edgeStyle=orthogonalEdgeStyle;rounded=0;orthogonalLoop=1;jettySize=auto;html=1;fontColor=#000000;fontSize=14;" edge="1" parent="db7kd97DLkEgXkuv01ct-2" source="db7kd97DLkEgXkuv01ct-96" target="db7kd97DLkEgXkuv01ct-97">
          <mxGeometry relative="1" as="geometry">
            <Array as="points">
              <mxPoint x="220" y="220" />
            </Array>
          </mxGeometry>
        </mxCell>
        <mxCell id="db7kd97DLkEgXkuv01ct-96" value="CloudFront" style="sketch=0;points=[[0,0,0],[0.25,0,0],[0.5,0,0],[0.75,0,0],[1,0,0],[0,1,0],[0.25,1,0],[0.5,1,0],[0.75,1,0],[1,1,0],[0,0.25,0],[0,0.5,0],[0,0.75,0],[1,0.25,0],[1,0.5,0],[1,0.75,0]];outlineConnect=0;fontColor=#000000;fillColor=#8C4FFF;strokeColor=#ffffff;dashed=0;verticalLabelPosition=bottom;verticalAlign=top;align=center;html=1;fontSize=14;fontStyle=0;aspect=fixed;shape=mxgraph.aws4.resourceIcon;resIcon=mxgraph.aws4.cloudfront;" vertex="1" parent="db7kd97DLkEgXkuv01ct-2">
          <mxGeometry x="160" y="360" width="80" height="80" as="geometry" />
        </mxCell>
        <mxCell id="db7kd97DLkEgXkuv01ct-102" style="edgeStyle=orthogonalEdgeStyle;rounded=0;orthogonalLoop=1;jettySize=auto;html=1;fontColor=#000000;fontSize=14;" edge="1" parent="db7kd97DLkEgXkuv01ct-2" source="db7kd97DLkEgXkuv01ct-97" target="db7kd97DLkEgXkuv01ct-38">
          <mxGeometry relative="1" as="geometry">
            <Array as="points">
              <mxPoint x="520" y="260" />
              <mxPoint x="520" y="380" />
            </Array>
          </mxGeometry>
        </mxCell>
        <mxCell id="db7kd97DLkEgXkuv01ct-118" style="edgeStyle=orthogonalEdgeStyle;rounded=0;orthogonalLoop=1;jettySize=auto;html=1;" edge="1" parent="db7kd97DLkEgXkuv01ct-2" source="db7kd97DLkEgXkuv01ct-97" target="db7kd97DLkEgXkuv01ct-98">
          <mxGeometry relative="1" as="geometry">
            <Array as="points">
              <mxPoint x="280" y="260" />
              <mxPoint x="280" y="530" />
            </Array>
          </mxGeometry>
        </mxCell>
        <mxCell id="db7kd97DLkEgXkuv01ct-97" value="&lt;div style=&quot;font-size: 14px;&quot;&gt;Lambda&lt;/div&gt;&lt;div style=&quot;font-size: 14px;&quot;&gt;Remix&lt;br style=&quot;font-size: 14px;&quot;&gt;&lt;/div&gt;" style="sketch=0;points=[[0,0,0],[0.25,0,0],[0.5,0,0],[0.75,0,0],[1,0,0],[0,1,0],[0.25,1,0],[0.5,1,0],[0.75,1,0],[1,1,0],[0,0.25,0],[0,0.5,0],[0,0.75,0],[1,0.25,0],[1,0.5,0],[1,0.75,0]];outlineConnect=0;fontColor=#000000;fillColor=#ED7100;strokeColor=#ffffff;dashed=0;verticalLabelPosition=bottom;verticalAlign=top;align=center;html=1;fontSize=14;fontStyle=0;aspect=fixed;shape=mxgraph.aws4.resourceIcon;resIcon=mxgraph.aws4.lambda;" vertex="1" parent="db7kd97DLkEgXkuv01ct-2">
          <mxGeometry x="400" y="200" width="80" height="80" as="geometry" />
        </mxCell>
        <mxCell id="db7kd97DLkEgXkuv01ct-101" style="edgeStyle=orthogonalEdgeStyle;rounded=0;orthogonalLoop=1;jettySize=auto;html=1;fontColor=#000000;fontSize=14;" edge="1" parent="db7kd97DLkEgXkuv01ct-2" source="db7kd97DLkEgXkuv01ct-98" target="db7kd97DLkEgXkuv01ct-38">
          <mxGeometry relative="1" as="geometry">
            <Array as="points">
              <mxPoint x="378" y="420" />
            </Array>
          </mxGeometry>
        </mxCell>
        <mxCell id="db7kd97DLkEgXkuv01ct-109" style="edgeStyle=orthogonalEdgeStyle;rounded=0;orthogonalLoop=1;jettySize=auto;html=1;fontColor=#000000;fontSize=14;" edge="1" parent="db7kd97DLkEgXkuv01ct-2" source="db7kd97DLkEgXkuv01ct-98" target="db7kd97DLkEgXkuv01ct-34">
          <mxGeometry relative="1" as="geometry" />
        </mxCell>
        <mxCell id="db7kd97DLkEgXkuv01ct-34" value="DynamoDB" style="sketch=0;points=[[0,0,0],[0.25,0,0],[0.5,0,0],[0.75,0,0],[1,0,0],[0,1,0],[0.25,1,0],[0.5,1,0],[0.75,1,0],[1,1,0],[0,0.25,0],[0,0.5,0],[0,0.75,0],[1,0.25,0],[1,0.5,0],[1,0.75,0]];outlineConnect=0;fontColor=#000000;fillColor=#C925D1;strokeColor=#ffffff;dashed=0;verticalLabelPosition=bottom;verticalAlign=top;align=center;html=1;fontSize=14;fontStyle=0;aspect=fixed;shape=mxgraph.aws4.resourceIcon;resIcon=mxgraph.aws4.dynamodb;fillStyle=auto;" vertex="1" parent="db7kd97DLkEgXkuv01ct-2">
          <mxGeometry x="457.5" y="510" width="80" height="80" as="geometry" />
        </mxCell>
        <mxCell id="db7kd97DLkEgXkuv01ct-98" value="&lt;div style=&quot;font-size: 14px;&quot;&gt;Lambda&lt;br style=&quot;font-size: 14px;&quot;&gt;&lt;/div&gt;&lt;div style=&quot;font-size: 14px;&quot;&gt;GraphQL&lt;/div&gt;" style="sketch=0;points=[[0,0,0],[0.25,0,0],[0.5,0,0],[0.75,0,0],[1,0,0],[0,1,0],[0.25,1,0],[0.5,1,0],[0.75,1,0],[1,1,0],[0,0.25,0],[0,0.5,0],[0,0.75,0],[1,0.25,0],[1,0.5,0],[1,0.75,0]];outlineConnect=0;fontColor=#000000;fillColor=#ED7100;strokeColor=#ffffff;dashed=0;verticalLabelPosition=bottom;verticalAlign=top;align=center;html=1;fontSize=14;fontStyle=0;aspect=fixed;shape=mxgraph.aws4.resourceIcon;resIcon=mxgraph.aws4.lambda;" vertex="1" parent="db7kd97DLkEgXkuv01ct-2">
          <mxGeometry x="337.5" y="510" width="80" height="80" as="geometry" />
        </mxCell>
        <mxCell id="db7kd97DLkEgXkuv01ct-121" style="edgeStyle=orthogonalEdgeStyle;rounded=0;orthogonalLoop=1;jettySize=auto;html=1;" edge="1" parent="db7kd97DLkEgXkuv01ct-2" source="db7kd97DLkEgXkuv01ct-119" target="db7kd97DLkEgXkuv01ct-98">
          <mxGeometry relative="1" as="geometry">
            <Array as="points">
              <mxPoint x="280" y="720" />
              <mxPoint x="280" y="570" />
            </Array>
          </mxGeometry>
        </mxCell>
        <mxCell id="db7kd97DLkEgXkuv01ct-122" style="edgeStyle=orthogonalEdgeStyle;rounded=0;orthogonalLoop=1;jettySize=auto;html=1;" edge="1" parent="db7kd97DLkEgXkuv01ct-2" source="db7kd97DLkEgXkuv01ct-119" target="db7kd97DLkEgXkuv01ct-97">
          <mxGeometry relative="1" as="geometry">
            <Array as="points">
              <mxPoint x="720" y="220" />
            </Array>
          </mxGeometry>
        </mxCell>
        <mxCell id="db7kd97DLkEgXkuv01ct-119" value="CloudFormation" style="sketch=0;points=[[0,0,0],[0.25,0,0],[0.5,0,0],[0.75,0,0],[1,0,0],[0,1,0],[0.25,1,0],[0.5,1,0],[0.75,1,0],[1,1,0],[0,0.25,0],[0,0.5,0],[0,0.75,0],[1,0.25,0],[1,0.5,0],[1,0.75,0]];points=[[0,0,0],[0.25,0,0],[0.5,0,0],[0.75,0,0],[1,0,0],[0,1,0],[0.25,1,0],[0.5,1,0],[0.75,1,0],[1,1,0],[0,0.25,0],[0,0.5,0],[0,0.75,0],[1,0.25,0],[1,0.5,0],[1,0.75,0]];outlineConnect=0;fontColor=#232F3E;fillColor=#E7157B;strokeColor=#ffffff;dashed=0;verticalLabelPosition=bottom;verticalAlign=top;align=center;html=1;fontSize=12;fontStyle=0;aspect=fixed;shape=mxgraph.aws4.resourceIcon;resIcon=mxgraph.aws4.cloudformation;" vertex="1" parent="db7kd97DLkEgXkuv01ct-2">
          <mxGeometry x="680" y="680" width="80" height="80" as="geometry" />
        </mxCell>
        <mxCell id="db7kd97DLkEgXkuv01ct-125" style="edgeStyle=orthogonalEdgeStyle;rounded=0;orthogonalLoop=1;jettySize=auto;html=1;" edge="1" parent="db7kd97DLkEgXkuv01ct-2" source="db7kd97DLkEgXkuv01ct-123" target="db7kd97DLkEgXkuv01ct-95">
          <mxGeometry relative="1" as="geometry">
            <Array as="points">
              <mxPoint x="110" y="260" />
              <mxPoint x="110" y="260" />
            </Array>
          </mxGeometry>
        </mxCell>
        <mxCell id="db7kd97DLkEgXkuv01ct-123" value="Cognito" style="sketch=0;points=[[0,0,0],[0.25,0,0],[0.5,0,0],[0.75,0,0],[1,0,0],[0,1,0],[0.25,1,0],[0.5,1,0],[0.75,1,0],[1,1,0],[0,0.25,0],[0,0.5,0],[0,0.75,0],[1,0.25,0],[1,0.5,0],[1,0.75,0]];outlineConnect=0;fontColor=#232F3E;fillColor=#DD344C;strokeColor=#ffffff;dashed=0;verticalLabelPosition=bottom;verticalAlign=top;align=center;html=1;fontSize=12;fontStyle=0;aspect=fixed;shape=mxgraph.aws4.resourceIcon;resIcon=mxgraph.aws4.cognito;" vertex="1" parent="db7kd97DLkEgXkuv01ct-2">
          <mxGeometry x="40" y="80" width="80" height="80" as="geometry" />
        </mxCell>
        <mxCell id="db7kd97DLkEgXkuv01ct-126" value="" style="sketch=0;points=[[0,0,0],[0.25,0,0],[0.5,0,0],[0.75,0,0],[1,0,0],[0,1,0],[0.25,1,0],[0.5,1,0],[0.75,1,0],[1,1,0],[0,0.25,0],[0,0.5,0],[0,0.75,0],[1,0.25,0],[1,0.5,0],[1,0.75,0]];outlineConnect=0;fontColor=#232F3E;fillColor=#8C4FFF;strokeColor=#ffffff;dashed=0;verticalLabelPosition=bottom;verticalAlign=top;align=center;html=1;fontSize=12;fontStyle=0;aspect=fixed;shape=mxgraph.aws4.resourceIcon;resIcon=mxgraph.aws4.api_gateway;" vertex="1" parent="db7kd97DLkEgXkuv01ct-2">
          <mxGeometry x="40" y="515" width="80" height="80" as="geometry" />
        </mxCell>
        <mxCell id="db7kd97DLkEgXkuv01ct-27" style="edgeStyle=orthogonalEdgeStyle;rounded=0;orthogonalLoop=1;jettySize=auto;html=1;fontColor=#000000;fontSize=14;" edge="1" parent="1" source="db7kd97DLkEgXkuv01ct-11" target="db7kd97DLkEgXkuv01ct-1">
          <mxGeometry relative="1" as="geometry" />
        </mxCell>
        <mxCell id="db7kd97DLkEgXkuv01ct-11" value="Client" style="sketch=0;outlineConnect=0;fontColor=#000000;gradientColor=none;fillColor=#232F3D;strokeColor=none;dashed=0;verticalLabelPosition=bottom;verticalAlign=top;align=center;html=1;fontSize=14;fontStyle=0;aspect=fixed;pointerEvents=1;shape=mxgraph.aws4.client;" vertex="1" parent="1">
          <mxGeometry x="80" y="740" width="78" height="76" as="geometry" />
        </mxCell>
        <mxCell id="db7kd97DLkEgXkuv01ct-50" style="edgeStyle=orthogonalEdgeStyle;rounded=0;orthogonalLoop=1;jettySize=auto;html=1;fontColor=#000000;fontSize=14;" edge="1" parent="1" source="db7kd97DLkEgXkuv01ct-39" target="db7kd97DLkEgXkuv01ct-48">
          <mxGeometry relative="1" as="geometry">
            <Array as="points">
              <mxPoint x="1440" y="920" />
              <mxPoint x="1440" y="920" />
            </Array>
          </mxGeometry>
        </mxCell>
        <mxCell id="db7kd97DLkEgXkuv01ct-39" value="GitHub" style="shape=image;html=1;verticalAlign=top;verticalLabelPosition=bottom;labelBackgroundColor=#ffffff;imageAspect=0;aspect=fixed;image=https://cdn4.iconfinder.com/data/icons/ionicons/512/icon-social-github-128.png;fontColor=#000000;fontSize=14;" vertex="1" parent="1">
          <mxGeometry x="1470" y="880" width="80" height="80" as="geometry" />
        </mxCell>
      </root>
    </mxGraphModel>
  </diagram>
</mxfile>
